# xmcd
#
# Track frame offsets: 
#        150
#        18889
#        31533
#        49779
#        68849
#        85104
#        101375
#        114790
#        133335
#        148786
#        167310
#        190091
#        207211
#        230552
#        248743
#        261378
#
# Disc length: 3721 seconds
#
# Revision: 0
# Processed by: cddbd v1.5.2PL0 Copyright (c) Steve Scherf et al.
# Submitted via: ExactAudioCopy v1.0b1
#
DISCID=cc0e8710
DTITLE=Trisha Yearwood - PrizeFighter: Hit After Hit
DYEAR=2014
DGENRE=Country
TTITLE0=PrizeFighter (Feat. Kelly Clarkson)
TTITLE1=Wrong Side Of Memphis
TTITLE2=I Remebber You
TTITLE3=Walkaway Joe (Feat. Don Henley)
TTITLE4=End Of The World
TTITLE5=In Another's Eyes (duet with Garth Brooks)
TTITLE6=Perfect Love
TTITLE7=How Do I Live
TTITLE8=Met Him In A Motel Room
TTITLE9=She's In Love With The Boy
TTITLE10=Your Husband's Cheatin' On Us
TTITLE11=Heaven, Heartache And The Power Of Love
TTITLE12=Georgia Rain
TTITLE13=You Can't Trust The Weatherman
TTITLE14=XXX's And OOO's
TTITLE15=The Song Remembers When
EXTD=
EXTT0=
EXTT1=
EXTT2=
EXTT3=
EXTT4=
EXTT5=
EXTT6=
EXTT7=
EXTT8=
EXTT9=
EXTT10=
EXTT11=
EXTT12=
EXTT13=
EXTT14=
EXTT15=
PLAYORDER=
